<svg width="128" height="128" viewBox="0 0 128 128" xmlns="http://www.w3.org/2000/svg">
  <!-- Background gradient -->
  <defs>
    <linearGradient id="bgGradient" x1="0%" y1="0%" x2="100%" y2="100%">
      <stop offset="0%" style="stop-color:#667eea;stop-opacity:1" />
      <stop offset="100%" style="stop-color:#764ba2;stop-opacity:1" />
    </linearGradient>
    <linearGradient id="calendarGradient" x1="0%" y1="0%" x2="100%" y2="100%">
      <stop offset="0%" style="stop-color:#10b981;stop-opacity:1" />
      <stop offset="100%" style="stop-color:#059669;stop-opacity:1" />
    </linearGradient>
    <linearGradient id="aiGradient" x1="0%" y1="0%" x2="100%" y2="100%">
      <stop offset="0%" style="stop-color:#f59e0b;stop-opacity:1" />
      <stop offset="100%" style="stop-color:#d97706;stop-opacity:1" />
    </linearGradient>
    <filter id="shadow" x="-20%" y="-20%" width="140%" height="140%">
      <feDropShadow dx="0" dy="4" stdDeviation="8" flood-color="#000000" flood-opacity="0.2"/>
    </filter>
  </defs>
  
  <!-- Background circle -->
  <circle cx="64" cy="64" r="60" fill="url(#bgGradient)" filter="url(#shadow)"/>
  
  <!-- Calendar base -->
  <rect x="32" y="40" width="64" height="48" rx="8" fill="url(#calendarGradient)" stroke="white" stroke-width="2"/>
  
  <!-- Calendar header -->
  <rect x="32" y="40" width="64" height="16" rx="8" fill="#059669"/>
  
  <!-- Calendar rings (representing AI) -->
  <circle cx="48" cy="48" r="3" fill="white" opacity="0.8"/>
  <circle cx="56" cy="48" r="3" fill="white" opacity="0.8"/>
  <circle cx="64" cy="48" r="3" fill="white" opacity="0.8"/>
  <circle cx="72" cy="48" r="3" fill="white" opacity="0.8"/>
  <circle cx="80" cy="48" r="3" fill="white" opacity="0.8"/>
  
  <!-- Calendar grid lines -->
  <line x1="40" y1="64" x2="88" y2="64" stroke="white" stroke-width="1" opacity="0.3"/>
  <line x1="40" y1="72" x2="88" y2="72" stroke="white" stroke-width="1" opacity="0.3"/>
  <line x1="40" y1="80" x2="88" y2="80" stroke="white" stroke-width="1" opacity="0.3"/>
  
  <line x1="48" y1="56" x2="48" y2="84" stroke="white" stroke-width="1" opacity="0.3"/>
  <line x1="56" y1="56" x2="56" y2="84" stroke="white" stroke-width="1" opacity="0.3"/>
  <line x1="64" y1="56" x2="64" y2="84" stroke="white" stroke-width="1" opacity="0.3"/>
  <line x1="72" y1="56" x2="72" y2="84" stroke="white" stroke-width="1" opacity="0.3"/>
  <line x1="80" y1="56" x2="80" y2="84" stroke="white" stroke-width="1" opacity="0.3"/>
  
  <!-- AI Brain icon overlay -->
  <g transform="translate(64, 70)">
    <!-- Brain outline -->
    <path d="M-12,-8 Q-16,-4 -16,0 Q-16,4 -12,8 Q-8,12 0,12 Q8,12 12,8 Q16,4 16,0 Q16,-4 12,-8 Q8,-12 0,-12 Q-8,-12 -12,-8 Z" 
          fill="url(#aiGradient)" opacity="0.9"/>
    
    <!-- Brain details -->
    <circle cx="-6" cy="-4" r="1.5" fill="white" opacity="0.8"/>
    <circle cx="6" cy="-4" r="1.5" fill="white" opacity="0.8"/>
    <circle cx="0" cy="0" r="1.5" fill="white" opacity="0.8"/>
    <circle cx="-4" cy="4" r="1.5" fill="white" opacity="0.8"/>
    <circle cx="4" cy="4" r="1.5" fill="white" opacity="0.8"/>
    
    <!-- Neural connections -->
    <line x1="-6" y1="-4" x2="6" y2="-4" stroke="white" stroke-width="0.5" opacity="0.6"/>
    <line x1="-6" y1="-4" x2="0" y2="0" stroke="white" stroke-width="0.5" opacity="0.6"/>
    <line x1="6" y1="-4" x2="0" y2="0" stroke="white" stroke-width="0.5" opacity="0.6"/>
    <line x1="0" y1="0" x2="-4" y2="4" stroke="white" stroke-width="0.5" opacity="0.6"/>
    <line x1="0" y1="0" x2="4" y2="4" stroke="white" stroke-width="0.5" opacity="0.6"/>
  </g>
  
  <!-- Clipboard icon (small) -->
  <g transform="translate(88, 32)">
    <rect x="-6" y="-8" width="12" height="16" rx="2" fill="white" opacity="0.9"/>
    <rect x="-4" y="-6" width="8" height="12" rx="1" fill="url(#calendarGradient)" opacity="0.8"/>
    <line x1="-2" y1="-2" x2="2" y2="-2" stroke="white" stroke-width="1"/>
    <line x1="-2" y1="0" x2="2" y2="0" stroke="white" stroke-width="1"/>
    <line x1="-2" y1="2" x2="2" y2="2" stroke="white" stroke-width="1"/>
  </g>
  
  <!-- Sparkle effects -->
  <circle cx="24" cy="24" r="2" fill="white" opacity="0.6">
    <animate attributeName="opacity" values="0.6;1;0.6" dur="2s" repeatCount="indefinite"/>
  </circle>
  <circle cx="104" cy="104" r="1.5" fill="white" opacity="0.6">
    <animate attributeName="opacity" values="0.6;1;0.6" dur="2.5s" repeatCount="indefinite"/>
  </circle>
  <circle cx="104" cy="24" r="1.5" fill="white" opacity="0.6">
    <animate attributeName="opacity" values="0.6;1;0.6" dur="1.8s" repeatCount="indefinite"/>
  </circle>
</svg> 