<svg xmlns="http://www.w3.org/2000/svg" viewBox="0 0 960 540">
  <defs>
    <linearGradient id="g" x1="0" y1="0" x2="1" y2="1">
      <stop offset="0" stop-color="#eef2ff"/>
      <stop offset="1" stop-color="#f8fafc"/>
    </linearGradient>
  </defs>
  <rect width="960" height="540" fill="url(#g)"/>
  <rect x="60" y="90" rx="12" ry="12" width="840" height="360" fill="#ffffff" stroke="#dbe3f2"/>
  <rect x="80" y="120" rx="8" ry="8" width="800" height="60" fill="#0b1220"/>
  <circle cx="120" cy="150" r="14" fill="#94a3b8"/>
  <rect x="160" y="135" width="180" height="30" rx="6" fill="#1f67ee"/>
  <text x="170" y="155" font-family="-apple-system,Segoe UI,Roboto,Noto Sans,sans-serif" font-size="18" fill="#ffffff">확장 프로그램</text>

  <!-- puzzle icon row -->
  <g transform="translate(120 240)">
    <rect x="0" y="0" width="720" height="90" rx="10" fill="#f1f5f9" stroke="#e5e7eb"/>
    <g transform="translate(20 18)">
      <rect x="0" y="0" width="54" height="54" rx="12" fill="#e2e8f0"/>
      <path d="M20 12 h14 a8 8 0 0 1 8 8 v6 h6 a8 8 0 0 1 0 16 h-6 v6 a8 8 0 0 1-8 8 h-14 v-10 a8 8 0 0 0-16 0 v10 h-8 a8 8 0 0 1-8-8 v-12 h10 a8 8 0 0 0 0-16 h-10 v-4 a8 8 0 0 1 8-8 h8 z" fill="#64748b" opacity=".7"/>
    </g>
    <text x="90" y="48" font-family="-apple-system,Segoe UI,Roboto,Noto Sans,sans-serif" font-size="20" fill="#0f172a">ContextClipCalendar</text>
    <!-- pin button -->
    <g transform="translate(640 22)">
      <rect x="0" y="0" width="60" height="46" rx="8" fill="#ecfeff" stroke="#67e8f9"/>
      <path d="M30 8 l10 14 h-8 l6 12 h-16 l6-12 h-8 z" fill="#0891b2"/>
    </g>
  </g>

  <text x="60" y="470" font-family="-apple-system,Segoe UI,Roboto,Noto Sans,sans-serif" font-size="22" fill="#334155">퍼즐 아이콘을 열고, 핀 아이콘을 눌러 툴바에 고정하세요</text>
</svg>
